<svg width="75" height="75" viewBox="0 0 75 75" fill="none" xmlns="http://www.w3.org/2000/svg">
    <rect width="75" height="75" fill="#4BE2AF" />
    <path fill-rule="evenodd" clip-rule="evenodd"
        d="M27.968 8.37511C25.828 9.11501 23.289 10.2215 22.3258 10.8325C19.376 12.7037 14.9312 16.4599 14.9312 17.081C14.9312 17.4042 16.9863 17.6686 19.4974 17.6686C23.0752 17.6686 24.9073 17.274 27.9607 15.8469C31.2412 14.313 32.7506 14.0245 37.5 14.0245C42.2494 14.0245 43.7588 14.313 47.0393 15.8469C50.0927 17.274 51.9248 17.6686 55.5026 17.6686C58.0137 17.6686 60.0688 17.3881 60.0688 17.0456C60.0688 16.3925 55.6765 12.6923 52.6715 10.8138C46.4479 6.92403 35.3327 5.8262 27.968 8.37511ZM8.28474 24.689L4 29.0382L20.0862 45.2219L36.1724 61.4048V46.882V32.3598L28.7048 32.3731L21.2372 32.3865L25.054 36.1027C28.116 39.0836 28.8708 40.2356 28.8708 41.9284C28.8708 43.9778 28.6584 43.8249 21.4828 36.6062C17.1987 32.2963 14.2874 28.8613 14.5522 28.4299C14.841 27.9598 17.5419 27.6853 21.8691 27.6853C27.354 27.6853 28.8051 27.8863 29.1111 28.687C29.3806 29.3935 30.4765 29.6886 32.8329 29.6886H36.1724V25.0142V20.3397H24.371H12.5695L8.28474 24.689ZM38.8276 40.872V61.4048L54.9138 45.2219L71 29.0382L66.696 24.6663C61.5258 19.4142 59.8477 19.1377 59.5337 23.4863C59.4222 25.0329 59.6778 26.9501 60.1013 27.7461C60.7757 29.0149 60.5759 29.4903 58.4783 31.5998L56.086 34.0072V27.1731V20.3397H52.7671H49.4482V30.5741C49.4482 40.6269 49.419 40.8359 47.7887 42.3765L46.1292 43.9451V32.1421V20.3397H42.4784H38.8276V40.872ZM7.82872 40.9688C8.52769 49.3508 15.1045 59.0803 22.9903 63.3982C28.5063 66.4185 36.1724 68.0633 36.1724 66.2269C36.1724 64.9501 29.595 58.908 26.5515 57.3888C22.9989 55.6159 18.835 51.3594 17.0746 47.7013C16.284 46.0579 13.8002 42.9107 11.5546 40.707L7.47227 36.7003L7.82872 40.9688ZM63.3246 40.8439C61.2822 42.9721 58.7724 46.2162 57.7462 48.0526C55.5012 52.072 51.9838 55.5945 48.4226 57.3888C45.3891 58.918 38.8276 64.9614 38.8276 66.2269C38.8276 68.0713 46.499 66.4159 52.0602 63.3708C60.7856 58.5928 68.4331 46.0559 67.2642 38.4439C67.0637 37.1377 66.6256 37.4048 63.3246 40.8439Z"
        fill="white" />
</svg>